<?xml version="1.0" encoding="UTF-8" standalone="no"?>
<svg
   xmlns:dc="http://purl.org/dc/elements/1.1/"
   xmlns:cc="http://creativecommons.org/ns#"
   xmlns:rdf="http://www.w3.org/1999/02/22-rdf-syntax-ns#"
   xmlns:svg="http://www.w3.org/2000/svg"
   xmlns="http://www.w3.org/2000/svg"
   xmlns:sodipodi="http://sodipodi.sourceforge.net/DTD/sodipodi-0.dtd"
   xmlns:inkscape="http://www.inkscape.org/namespaces/inkscape"
   version="1.0"
   width="1536.000000pt"
   height="1202.000000pt"
   viewBox="0 0 1536.000000 1202.000000"
   preserveAspectRatio="xMidYMid meet"
   id="svg60"
   sodipodi:docname="Engineers India Logo.svg"
   inkscape:version="0.92.3 (2405546, 2018-03-11)">
  <defs
     id="defs64" />
  <sodipodi:namedview
     pagecolor="#ffffff"
     bordercolor="#666666"
     borderopacity="1"
     objecttolerance="10"
     gridtolerance="10"
     guidetolerance="10"
     inkscape:pageopacity="0"
     inkscape:pageshadow="2"
     inkscape:window-width="1366"
     inkscape:window-height="705"
     id="namedview62"
     showgrid="false"
     inkscape:zoom="0.3344426"
     inkscape:cx="1024"
     inkscape:cy="801.33333"
     inkscape:window-x="-8"
     inkscape:window-y="-8"
     inkscape:window-maximized="1"
     inkscape:current-layer="g58" />
  <metadata
     id="metadata10">
Created by potrace 1.15, written by Peter Selinger 2001-2017
<rdf:RDF>
  <cc:Work
     rdf:about="">
    <dc:format>image/svg+xml</dc:format>
    <dc:type
       rdf:resource="http://purl.org/dc/dcmitype/StillImage" />
  </cc:Work>
</rdf:RDF>
</metadata>
  <g
     transform="translate(0.000000,1202.000000) scale(0.100000,-0.100000)"
     fill="#000000"
     stroke="none"
     id="g58">
    <path
       d="M7295 11999 c-1257 -108 -2416 -727 -3210 -1714 -906 -1127 -1245 -2601 -924 -4020 162 -715 501 -1399 979 -1974 130 -157 418 -446 570 -572 537 -447 1120 -753 1769 -929 1188 -322 2475 -149 3532 476 1287 760 2139 2099 2283 3589 86 889 -73 1767 -464 2560 -580 1177 -1626 2058 -2875 2419 -280 81 -606 140 -910 166 -141 12 -607 11 -750 -1z m635 -199 c1074 -66 2049 -497 2819 -1245 686 -667 1142 -1534 1300 -2473 55 -322 76 -774 52 -1092 -83 -1089 -540 -2089 -1306 -2855 -357 -357 -734 -626 -1190 -850 -459 -225 -902 -355 -1440 -422 -202 -25 -770 -25 -975 0 -528 66 -976 197 -1435 422 -456 223 -831 491 -1190 850 -692 692 -1139 1589 -1274 2556 -61 438 -54 956 20 1391 273 1625 1429 2982 2979 3498 537 179 1092 253 1640 220z"
       id="path12"
       style="fill:#000080" />
    <path
       d="M7400 11594 c-157 -14 -354 -39 -470 -60 -687 -126 -1326 -418 -1880 -860 -174 -139 -515 -480 -654 -654 -111 -140 -299 -415 -378 -555 -49 -86 -108 -201 -108 -210 0 -3 1697 -5 3770 -5 2074 0 3770 2 3770 5 0 9 -59 124 -108 210 -79 140 -267 415 -378 555 -139 174 -480 515 -654 654 -628 501 -1352 804 -2155 902 -123 15 -646 27 -755 18z"
       id="path14"
       style="fill:#000080" />
    <path
       d="M3770 8958 c-219 -528 -333 -1150 -317 -1738 15 -564 125 -1073 342 -1595 l15 -35 3871 2 3871 3 45 110 c341 841 405 1805 178 2692 -43 165 -126 419 -185 561 l-43 103 -126 -8 c-165 -10 -5204 -10 -6557 0 l-1051 8 -43 -103z m7678 -200 c154 -428 231 -807 251 -1244 26 -542 -54 -1079 -237 -1586 l-46 -128 -3733 0 -3732 0 -15 28 c-25 49 -116 329 -151 468 -209 813 -166 1650 127 2462 l30 82 3738 0 3738 0 30 -82z"
       id="path16"
       style="fill:#000080" />
    <path
       d="M5038 8653 l-738 -3 0 -138 c1 -75 6 -166 13 -202 l12 -65 64 -7 c138 -15 235 -65 275 -143 20 -38 21 -63 29 -405 10 -497 4 -1093 -12 -1144 -7 -21 -34 -60 -60 -86 -55 -55 -109 -76 -224 -86 l-77 -6 2 -190 3 -190 1030 1 c567 1 1040 4 1053 8 l22 5 0 415 0 415 -189 -4 c-104 -2 -193 -6 -197 -11 -4 -4 -11 -63 -15 -132 -11 -174 -41 -233 -139 -279 -42 -19 -59 -20 -260 -17 -118 1 -218 5 -222 7 -5 3 -8 175 -8 384 0 335 2 379 16 384 9 3 148 6 310 6 l294 0 0 164 0 163 -52 7 c-29 3 -168 6 -309 6 l-257 0 -7 285 c-4 156 -4 318 0 359 6 65 9 75 28 80 37 10 341 7 398 -4 86 -17 140 -48 169 -100 22 -40 25 -60 30 -180 l5 -135 95 -8 c96 -8 253 -3 285 9 16 7 17 30 11 378 -4 204 -9 392 -12 419 l-6 47 -311 -2 c-172 -2 -644 -4 -1049 -5z"
       id="path18"
       style="fill:#000080" />
    <path
       d="M6876 8638 c-8 -30 -8 -216 0 -311 l7 -77 43 0 c66 0 195 -20 234 -36 69 -29 116 -92 138 -184 15 -64 25 -825 14 -1190 -9 -334 -9 -336 -74 -396 -42 -39 -108 -54 -242 -54 l-103 0 -7 -169 c-4 -92 -4 -180 0 -195 l6 -26 768 0 c423 0 770 3 772 8 2 4 1 90 -2 192 l-5 185 -87 7 c-140 10 -232 67 -279 171 l-24 52 -3 650 c-1 357 1 694 6 748 8 86 13 103 40 140 43 60 99 87 181 87 36 0 90 3 119 6 l52 7 0 197 0 197 -457 6 c-252 4 -600 7 -774 7 l-317 0 -6 -22z"
       id="path20"
       style="fill:#000080" />
    <path
       d="M9104 8653 c-192 -3 -233 -6 -238 -18 -3 -8 -2 -98 1 -200 l6 -185 91 0 c136 -1 205 -33 266 -122 31 -45 33 -53 41 -175 4 -71 8 -398 10 -728 3 -668 0 -711 -53 -771 -39 -44 -79 -54 -219 -54 l-116 0 -7 -31 c-8 -41 -8 -181 1 -286 l6 -83 857 0 c471 0 959 3 1084 7 l228 6 -4 399 c-3 341 -5 400 -18 408 -8 5 -94 10 -191 10 l-176 0 -7 -152 c-8 -165 -20 -206 -72 -247 -26 -20 -37 -21 -319 -21 l-293 0 -7 93 c-3 50 -5 423 -3 827 4 808 4 804 65 862 49 46 72 52 206 56 l127 4 0 204 0 204 -517 -2 c-285 -2 -622 -4 -749 -5z"
       id="path22"
       style="fill:#000080" />
    <path
       d="M3910 5382 c0 -4 36 -72 81 -152 889 -1595 2653 -2437 4439 -2119 1120 199 2135 874 2773 1844 80 122 247 411 247 427 0 5 -1696 8 -3770 8 -2073 0 -3770 -3 -3770 -8z"
       id="path24"
       style="fill:#000080" />
    <path
       d="M8850 1470 c-174 -47 -284 -161 -336 -351 -14 -49 -18 -101 -18 -219 0 -118 4 -170 18 -219 52 -188 169 -312 339 -357 68 -18 247 -18 316 1 164 43 277 150 315 300 29 110 33 105 -98 105 l-114 0 -16 -46 c-36 -108 -110 -157 -232 -157 -134 0 -227 68 -270 199 -29 90 -26 287 5 368 58 147 201 216 354 172 75 -22 114 -58 137 -126 l19 -55 117 -3 117 -3 -7 52 c-21 160 -110 271 -264 330 -85 32 -278 37 -382 9z"
       id="path26" />
    <path
       d="M390 1456 c0 -2 -59 -171 -131 -377 -72 -206 -160 -456 -195 -557 l-63 -183 126 3 126 3 35 113 35 112 208 0 208 0 38 -115 37 -115 124 0 c95 0 123 3 120 12 -3 7 -92 259 -199 560 l-194 548 -137 0 c-76 0 -138 -2 -138 -4z m213 -468 c37 -117 67 -216 67 -220 0 -5 -65 -8 -144 -8 l-143 0 71 220 c39 121 73 220 76 220 3 0 36 -96 73 -212z"
       id="path28" />
    <path
       d="M1600 900 l0 -560 115 0 115 0 2 371 3 372 216 -369 215 -369 122 -3 122 -3 0 561 0 560 -115 0 -115 0 -2 -369 -3 -368 -214 368 -214 369 -124 0 -123 0 0 -560z"
       id="path30" />
    <path
       d="M5850 1285 l0 -115 -55 0 -55 0 0 -80 0 -80 54 0 55 0 3 -282 c3 -255 5 -287 22 -322 30 -59 75 -76 214 -76 l112 0 0 90 0 90 -49 0 c-80 0 -81 4 -81 272 l0 228 65 0 65 0 0 80 0 80 -65 0 -65 0 0 115 0 115 -110 0 -110 0 0 -115z"
       id="path32" />
    <path
       d="M2914 1189 c-118 -28 -201 -118 -211 -228 l-6 -61 107 0 c94 0 106 2 106 18 0 37 38 81 81 92 118 32 229 -51 157 -117 -30 -26 -41 -30 -156 -48 -191 -30 -252 -59 -295 -138 -18 -35 -22 -58 -22 -137 0 -88 2 -99 31 -150 44 -78 106 -110 213 -110 96 0 157 20 213 70 l43 38 10 -37 11 -36 122 -3 c136 -3 143 1 100 59 -22 30 -23 39 -28 332 -4 260 -7 306 -22 333 -45 83 -143 125 -303 130 -60 2 -128 -1 -151 -7z m251 -576 c-8 -42 -50 -92 -92 -109 -54 -23 -126 -18 -157 11 -36 33 -36 84 2 126 21 24 50 38 137 64 l110 33 3 -46 c2 -26 1 -61 -3 -79z"
       id="path34" />
    <path
       d="M5161 1184 c-126 -34 -194 -111 -202 -229 l-4 -50 108 -3 107 -3 0 24 c0 61 79 105 163 93 96 -15 127 -100 49 -140 -15 -7 -85 -23 -157 -36 -146 -25 -187 -39 -229 -78 -48 -45 -66 -96 -66 -192 0 -184 89 -268 274 -258 89 5 148 28 202 80 l31 29 7 -40 6 -41 120 0 c116 0 120 1 120 22 0 12 -8 30 -17 41 -16 17 -19 52 -23 321 -6 345 -8 355 -93 413 -86 58 -273 80 -396 47z m247 -603 c-30 -59 -83 -91 -154 -91 -84 0 -131 55 -103 121 16 40 63 66 176 98 l98 28 3 -55 c2 -41 -3 -65 -20 -101z"
       id="path36" />
    <path
       d="M7427 1189 c-124 -29 -202 -114 -214 -235 l-6 -54 106 0 106 0 11 40 c15 55 48 75 126 75 83 0 119 -24 119 -81 0 -35 -4 -41 -35 -56 -19 -9 -91 -26 -160 -38 -202 -34 -265 -76 -291 -199 -22 -106 8 -220 74 -278 48 -42 104 -56 202 -51 88 5 142 26 192 77 l30 30 12 -40 12 -39 119 0 120 0 0 24 c0 13 -5 26 -10 28 -6 2 -17 21 -25 43 -11 31 -14 103 -15 312 0 166 -4 283 -11 300 -24 64 -107 120 -207 142 -61 13 -200 13 -255 0z m260 -514 c-12 -124 -72 -185 -183 -185 -37 0 -51 6 -75 29 -49 49 -34 112 34 148 28 14 196 69 221 72 5 1 6 -28 3 -64z"
       id="path38" />
    <path
       d="M9907 1190 c-205 -52 -323 -263 -289 -517 21 -158 95 -266 222 -327 62 -29 71 -31 185 -31 143 0 205 20 282 90 91 81 133 189 133 345 0 212 -85 362 -238 421 -64 24 -230 35 -295 19z m214 -213 c51 -34 82 -104 87 -201 9 -172 -59 -271 -184 -270 -102 2 -166 76 -180 210 -12 114 24 213 95 261 47 32 134 32 182 0z"
       id="path40" />
    <path
       d="M12305 1191 c-46 -11 -76 -30 -122 -74 l-43 -41 0 47 0 47 -105 0 -105 0 0 -580 0 -580 110 0 110 0 0 203 0 204 39 -38 c54 -51 124 -73 215 -67 45 3 86 13 113 26 237 122 276 587 65 784 -72 67 -176 93 -277 69z m78 -205 c73 -31 107 -104 107 -229 0 -44 -5 -98 -12 -120 -17 -56 -74 -113 -121 -122 -121 -23 -196 54 -205 212 -5 97 9 164 45 212 44 57 119 76 186 47z"
       id="path42" />
    <path
       d="M13050 1184 c-69 -18 -126 -57 -164 -112 -24 -34 -31 -56 -34 -107 l-4 -65 106 0 c105 0 106 0 106 24 0 60 79 104 163 92 96 -15 127 -100 49 -140 -15 -7 -85 -23 -157 -36 -152 -26 -198 -44 -241 -92 -45 -52 -57 -96 -52 -197 3 -72 9 -95 31 -134 49 -83 115 -112 241 -105 89 5 148 28 202 80 l31 29 7 -40 6 -41 120 0 c116 0 120 1 120 22 0 12 -8 30 -17 41 -16 17 -19 52 -23 321 -6 345 -8 355 -93 413 -86 58 -272 80 -397 47z m248 -603 c-30 -59 -83 -91 -154 -91 -83 0 -127 51 -102 121 14 39 61 66 175 98 l98 28 3 -55 c2 -41 -3 -65 -20 -101z"
       id="path44" />
    <path
       d="M4731 1179 c-40 -16 -82 -50 -112 -92 l-29 -40 0 61 0 62 -105 0 -105 0 0 -415 0 -415 115 0 115 0 0 248 c0 219 3 252 19 288 23 51 64 71 160 80 l71 7 0 113 0 114 -52 -1 c-29 0 -64 -5 -77 -10z"
       id="path46" />
    <path
       d="M6666 1175 c-21 -7 -58 -28 -82 -45 l-44 -31 0 35 0 36 -115 0 -115 0 0 -415 0 -415 115 0 114 0 3 279 c3 264 4 281 24 307 33 45 70 67 121 71 64 5 108 -21 122 -74 7 -22 11 -150 11 -310 l0 -273 116 0 115 0 -3 333 -3 332 -30 60 c-32 64 -71 97 -134 115 -51 14 -169 12 -215 -5z"
       id="path48" />
    <path
       d="M10905 1171 c-22 -10 -55 -30 -72 -45 l-33 -28 0 36 0 36 -110 0 -110 0 0 -415 0 -415 115 0 115 0 0 275 c0 299 2 312 56 354 29 23 101 29 135 11 45 -25 49 -51 49 -355 l0 -285 109 0 110 0 3 278 c3 266 4 278 25 313 27 43 59 59 118 59 32 0 51 -7 72 -24 l28 -24 3 -301 3 -301 115 0 115 0 -3 328 c-3 319 -4 328 -27 380 -47 103 -129 147 -263 140 -92 -5 -125 -18 -179 -72 l-35 -36 -22 29 c-11 16 -44 40 -73 55 -67 33 -180 36 -244 7z"
       id="path50" />
    <path
       d="M14064 1174 c-23 -8 -60 -31 -83 -50 l-41 -36 0 41 0 41 -110 0 -110 0 0 -415 0 -415 109 0 110 0 3 273 c3 251 5 275 23 307 45 78 167 103 224 46 l26 -26 3 -300 3 -300 115 0 115 0 -3 343 c-3 331 -4 343 -25 384 -27 51 -82 96 -132 112 -52 15 -177 13 -227 -5z"
       id="path52" />
    <path
       d="M3480 1163 c0 -5 65 -190 144 -413 l144 -405 118 0 119 0 142 400 c78 220 142 406 142 413 1 9 -29 12 -118 12 l-118 0 -78 -272 c-42 -150 -80 -276 -84 -280 -5 -6 -40 113 -153 520 l-9 32 -124 0 c-69 0 -125 -3 -125 -7z"
       id="path54" />
    <path
       d="M14601 998 c193 -548 241 -698 235 -723 -12 -48 -48 -73 -115 -81 l-61 -7 0 -94 0 -95 103 4 c121 5 172 26 214 89 15 23 103 264 204 557 98 284 179 518 179 520 0 1 -54 2 -119 2 l-119 0 -11 -32 c-5 -18 -35 -123 -66 -233 -31 -110 -63 -225 -72 -255 l-16 -55 -82 285 -82 285 -126 3 -126 3 60 -173z"
       id="path56" />
  </g>
</svg>
