<svg width="70" height="11" viewBox="0 0 70 11" fill="none" xmlns="http://www.w3.org/2000/svg">
<path d="M5 0.24292L6.12257 3.69783H9.75528L6.81636 5.83309L7.93893 9.288L5 7.15275L2.06107 9.288L3.18364 5.83309L0.244718 3.69783H3.87743L5 0.24292Z" fill="#D9D9D9"/>
<path d="M20 0.24292L21.1226 3.69783H24.7553L21.8164 5.83309L22.9389 9.288L20 7.15275L17.0611 9.288L18.1836 5.83309L15.2447 3.69783H18.8774L20 0.24292Z" fill="#D9D9D9"/>
<path d="M35 0.24292L36.1226 3.69783H39.7553L36.8164 5.83309L37.9389 9.288L35 7.15275L32.0611 9.288L33.1836 5.83309L30.2447 3.69783H33.8774L35 0.24292Z" fill="#D9D9D9"/>
<path d="M50 0.24292L51.1226 3.69783H54.7553L51.8164 5.83309L52.9389 9.288L50 7.15275L47.0611 9.288L48.1836 5.83309L45.2447 3.69783H48.8774L50 0.24292Z" fill="#D9D9D9"/>
<path d="M65 0.24292L66.1226 3.69783H69.7553L66.8164 5.83309L67.9389 9.288L65 7.15275L62.0611 9.288L63.1836 5.83309L60.2447 3.69783H63.8774L65 0.24292Z" fill="#D9D9D9"/>
</svg>
