<svg width="54" height="44" viewBox="0 0 54 44" fill="none" xmlns="http://www.w3.org/2000/svg">
<path d="M0 44V37.1556C0 35.8111 0.346296 34.5481 1.03889 33.3667C1.73148 32.1852 2.68889 31.2889 3.91111 30.6778C5.98889 29.6185 8.33148 28.7222 10.9389 27.9889C13.5463 27.2556 16.4185 26.8889 19.5556 26.8889C22.6926 26.8889 25.5648 27.2556 28.1722 27.9889C30.7796 28.7222 33.1222 29.6185 35.2 30.6778C36.4222 31.2889 37.3796 32.1852 38.0722 33.3667C38.7648 34.5481 39.1111 35.8111 39.1111 37.1556V44H0ZM19.5556 24.4444C16.8667 24.4444 14.5648 23.487 12.65 21.5722C10.7352 19.6574 9.77778 17.3556 9.77778 14.6667H9.16667C8.8 14.6667 8.50504 14.555 8.28178 14.3318C8.05852 14.1085 7.94607 13.8127 7.94445 13.4444C7.94445 13.0778 8.05689 12.782 8.28178 12.5571C8.50667 12.3322 8.80163 12.2206 9.16667 12.2222H9.77778C9.77778 10.3889 10.2259 8.73889 11.1222 7.27222C12.0185 5.80556 13.2 4.64444 14.6667 3.78889V6.11111C14.6667 6.47778 14.7791 6.77356 15.004 6.99844C15.2289 7.22333 15.5239 7.33496 15.8889 7.33333C16.2556 7.33333 16.5513 7.2217 16.7762 6.99844C17.0011 6.77519 17.1127 6.47941 17.1111 6.11111V2.81111C17.4778 2.68889 17.8648 2.59763 18.2722 2.53733C18.6796 2.47704 19.1074 2.44607 19.5556 2.44444C20.0037 2.44444 20.4315 2.47541 20.8389 2.53733C21.2463 2.59926 21.6333 2.69052 22 2.81111V6.11111C22 6.47778 22.1124 6.77356 22.3373 6.99844C22.5622 7.22333 22.8572 7.33496 23.2222 7.33333C23.5889 7.33333 23.8847 7.2217 24.1096 6.99844C24.3344 6.77519 24.4461 6.47941 24.4444 6.11111V3.78889C25.9111 4.64444 27.0926 5.80556 27.9889 7.27222C28.8852 8.73889 29.3333 10.3889 29.3333 12.2222H29.9444C30.3111 12.2222 30.6069 12.3347 30.8318 12.5596C31.0567 12.7844 31.1683 13.0794 31.1667 13.4444C31.1667 13.8111 31.055 14.1069 30.8318 14.3318C30.6085 14.5567 30.3127 14.6683 29.9444 14.6667H29.3333C29.3333 17.3556 28.3759 19.6574 26.4611 21.5722C24.5463 23.487 22.2444 24.4444 19.5556 24.4444ZM19.5556 19.5556C20.9 19.5556 22.0513 19.0773 23.0096 18.1207C23.9678 17.1641 24.4461 16.0127 24.4444 14.6667H14.6667C14.6667 16.0111 15.1458 17.1624 16.104 18.1207C17.0622 19.0789 18.2127 19.5572 19.5556 19.5556ZM37.8889 29.3333L37.5222 27.5C37.2778 27.4185 37.0439 27.3273 36.8207 27.2262C36.5974 27.1252 36.3831 26.972 36.1778 26.7667L34.4667 27.3778L33.2444 25.1778L34.5889 23.9556V22.4889L33.2444 21.2667L34.4667 19.0667L36.1778 19.6778C36.3407 19.5148 36.5444 19.3722 36.7889 19.25C37.0333 19.1278 37.2778 19.0259 37.5222 18.9444L37.8889 17.1111H40.3333L40.7 18.9444C40.9444 19.0259 41.1889 19.1278 41.4333 19.25C41.6778 19.3722 41.8815 19.5148 42.0444 19.6778L43.7556 19.0667L44.9778 21.2667L43.6333 22.4889V23.9556L44.9778 25.1778L43.7556 27.3778L42.0444 26.7667C41.8407 26.9704 41.6273 27.1236 41.404 27.2262C41.1807 27.3289 40.9461 27.4201 40.7 27.5L40.3333 29.3333H37.8889ZM39.1111 25.0556C39.6 25.0556 40.0278 24.8722 40.3944 24.5056C40.7611 24.1389 40.9444 23.7111 40.9444 23.2222C40.9444 22.7333 40.7611 22.3056 40.3944 21.9389C40.0278 21.5722 39.6 21.3889 39.1111 21.3889C38.6222 21.3889 38.1944 21.5722 37.8278 21.9389C37.4611 22.3056 37.2778 22.7333 37.2778 23.2222C37.2778 23.7111 37.4611 24.1389 37.8278 24.5056C38.1944 24.8722 38.6222 25.0556 39.1111 25.0556ZM43.5111 17.1111L43.0222 14.5444C42.6556 14.4222 42.3199 14.2699 42.0151 14.0873C41.7104 13.9048 41.435 13.6905 41.1889 13.4444L38.6222 14.3L36.9111 11.3667L38.9889 9.53333C38.9074 9.32963 38.8667 9.16667 38.8667 9.04444V8.06667C38.8667 7.94444 38.9074 7.78148 38.9889 7.57778L36.9111 5.74444L38.6222 2.81111L41.1889 3.66667C41.4333 3.42222 41.7087 3.20793 42.0151 3.02378C42.3215 2.83963 42.6572 2.68726 43.0222 2.56667L43.5111 0H46.9333L47.4222 2.56667C47.7889 2.68889 48.1254 2.84207 48.4318 3.02622C48.7382 3.21037 49.0127 3.42385 49.2556 3.66667L51.8222 2.81111L53.5333 5.74444L51.4556 7.57778C51.537 7.78148 51.5778 7.94444 51.5778 8.06667V9.04444C51.5778 9.16667 51.537 9.32963 51.4556 9.53333L53.5333 11.3667L51.8222 14.3L49.2556 13.4444C49.0111 13.6889 48.7365 13.9032 48.4318 14.0873C48.127 14.2715 47.7905 14.4239 47.4222 14.5444L46.9333 17.1111H43.5111ZM45.2222 11.6111C46.0778 11.6111 46.8013 11.3153 47.3929 10.7238C47.9844 10.1322 48.2794 9.40948 48.2778 8.55556C48.2778 7.7 47.982 6.97644 47.3904 6.38489C46.7989 5.79333 46.0761 5.49837 45.2222 5.5C44.3667 5.5 43.6431 5.79578 43.0516 6.38733C42.46 6.97889 42.165 7.70163 42.1667 8.55556C42.1667 9.41111 42.4624 10.1347 43.054 10.7262C43.6456 11.3178 44.3683 11.6127 45.2222 11.6111Z" fill="#868686"/>
</svg>
